<svg width="24" height="22" viewBox="0 0 24 22" fill="none" xmlns="http://www.w3.org/2000/svg">
<path fill-rule="evenodd" clip-rule="evenodd" d="M17.15 0.75C13.6 0.75 12 3.4 12 3.4C12 3.4 10.4 0.75 6.85 0.75C3.2 0.75 0.25 3.95 0.25 7.9C0.25 11.85 3.3 14.1 6.35 16.8C10.95 20.9 11.25 21.25 12 21.25C12.75 21.25 13.05 20.9 17.65 16.8C20.75 14.05 23.75 11.8 23.75 7.9C23.75 3.95 20.8 0.75 17.15 0.75ZM16.65 15.65C13.95 18.05 12.5 19.4 12 19.7C11.5 19.35 9.7 17.75 7.35 15.65C4.6 13.2 1.75 11.15 1.75 7.85C1.75 4.75 4.05 2.2 6.85 2.2C8.9 2.2 10 3.2 10.8 4.3C12.6 6.85 11.4 6.85 13.2 4.3C14 3.2 15.1 2.2 17.15 2.2C19.95 2.2 22.25 4.75 22.25 7.85C22.25 11.2 19.4 13.25 16.65 15.65Z" fill="#262626"/>
</svg>
