<svg width="24" height="22" viewBox="0 0 24 22" fill="none" xmlns="http://www.w3.org/2000/svg">
<path d="M11.786 3.52922L11.7861 3.52939L11.7862 3.52951L11.7862 3.52956L12 3.88368L12.2138 3.52956L12.2138 3.52951L12.2139 3.52939L12.214 3.52922L12.2142 3.52895L12.2167 3.52496L12.2286 3.50625C12.2397 3.48919 12.257 3.46315 12.2805 3.42942C12.3277 3.36195 12.4001 3.26384 12.4981 3.14527C12.6944 2.90793 12.9928 2.5899 13.3981 2.27163C14.2073 1.63626 15.442 1 17.15 1C20.6434 1 23.5 4.06875 23.5 7.9C23.5 9.77668 22.7813 11.2601 21.6688 12.6232C20.746 13.7539 19.565 14.7879 18.3048 15.8913C18.0343 16.1281 17.7601 16.3681 17.4841 16.613L17.4837 16.6134C16.9801 17.0622 16.5284 17.4657 16.1224 17.8285C14.6698 19.1264 13.8006 19.903 13.2243 20.3679C12.8553 20.6656 12.6229 20.8216 12.4457 20.9051C12.281 20.9828 12.1597 21 12 21C11.8403 21 11.719 20.9828 11.5543 20.9051C11.3771 20.8216 11.1447 20.6656 10.7757 20.3679C10.1994 19.903 9.3302 19.1264 7.87756 17.8285C7.47152 17.4657 7.01989 17.0622 6.51634 16.6134L6.51571 16.6128C6.22633 16.3566 5.93823 16.1055 5.65368 15.8575C4.4262 14.7877 3.26458 13.7753 2.34951 12.6602C1.23103 11.2972 0.5 9.80141 0.5 7.9C0.5 4.06875 3.35663 1 6.85 1C8.55804 1 9.79266 1.63626 10.6019 2.27163C11.0072 2.5899 11.3056 2.90793 11.5019 3.14527C11.5999 3.26384 11.6723 3.36195 11.7195 3.42942C11.743 3.46315 11.7603 3.48919 11.7714 3.50625L11.7833 3.52496L11.7858 3.52895L11.786 3.52922ZM16.4856 15.4616L16.4839 15.4631C15.7841 16.0852 15.1702 16.635 14.6349 17.1143C14.1348 17.5622 13.7033 17.9487 13.3343 18.2753C12.6944 18.8417 12.2642 19.2085 12.0076 19.3941C11.7236 19.1739 11.2165 18.7415 10.5335 18.1432C9.72831 17.4379 8.69171 16.5137 7.51658 15.4636L7.5163 15.4633C7.19296 15.1753 6.87031 14.8944 6.5524 14.6176C5.5043 13.7052 4.50778 12.8377 3.7085 11.906C2.67464 10.7008 2 9.41909 2 7.85C2 4.86331 4.2116 2.45 6.85 2.45C7.83136 2.45 8.57316 2.68851 9.16296 3.05056C9.75522 3.41413 10.2073 3.9103 10.5968 4.44562C11.0379 5.07077 11.2946 5.53844 11.4603 5.85135C11.4766 5.88218 11.4924 5.91221 11.5077 5.94123C11.5675 6.05505 11.6193 6.15339 11.6631 6.22434C11.6906 6.26884 11.7248 6.3193 11.7668 6.36068C11.8078 6.40107 11.8864 6.4625 12 6.4625C12.1136 6.4625 12.1922 6.40107 12.2332 6.36068C12.2752 6.3193 12.3094 6.26884 12.3369 6.22434C12.3807 6.15339 12.4325 6.05505 12.4923 5.94123C12.5076 5.91221 12.5234 5.88218 12.5397 5.85135C12.7054 5.53844 12.9621 5.07077 13.4032 4.44562C13.7927 3.9103 14.2448 3.41413 14.837 3.05056C15.4268 2.68851 16.1686 2.45 17.15 2.45C19.7884 2.45 22 4.86331 22 7.85C22 9.44506 21.3245 10.7394 20.2915 11.9435C19.4694 12.9018 18.4377 13.7853 17.3561 14.7114C17.0685 14.9577 16.7773 15.2071 16.4856 15.4616ZM11.0042 4.15583L11.0043 4.15581L11.0022 4.15296C10.5919 3.58882 10.0943 3.03555 9.42454 2.62444C8.75183 2.21149 7.91864 1.95 6.85 1.95C3.8884 1.95 1.5 4.63669 1.5 7.85C1.5 9.58091 2.25036 10.9742 3.329 12.2315C4.15437 13.1936 5.18916 14.0943 6.24329 15.0118C6.5567 15.2845 6.87181 15.5588 7.18364 15.8366C8.35842 16.8864 9.39674 17.8122 10.204 18.5193C11.0057 19.2216 11.5928 19.7201 11.8566 19.9048L11.9895 19.9978L12.1286 19.9144C12.4035 19.7495 12.9118 19.3171 13.6657 18.6497C14.0337 18.324 14.4675 17.9354 14.9697 17.4857C15.506 17.0055 16.1202 16.4554 16.8152 15.8376C17.0971 15.5916 17.3816 15.3481 17.6651 15.1054C18.7507 14.176 19.8213 13.2595 20.671 12.269C21.7505 11.0106 22.5 9.60494 22.5 7.85C22.5 4.63669 20.1116 1.95 17.15 1.95C16.0814 1.95 15.2482 2.21149 14.5755 2.62444C13.9057 3.03555 13.4081 3.58882 12.9978 4.15296L12.9978 4.15294L12.9958 4.15583C12.5376 4.80495 12.2695 5.29305 12.0978 5.6174C12.0783 5.65418 12.0605 5.68803 12.0441 5.71923C12.0282 5.74952 12.0135 5.7773 12 5.8028C11.9865 5.7773 11.9718 5.74952 11.9559 5.71923C11.9395 5.68803 11.9217 5.65418 11.9022 5.6174C11.7305 5.29305 11.4624 4.80495 11.0042 4.15583Z" fill="#FF0000" stroke="#FF0303" stroke-width="0.5"/>
</svg>
